<?xml version="1.0" encoding="UTF-8"?>
<svg xmlns="http://www.w3.org/2000/svg" xmlns:xlink="http://www.w3.org/1999/xlink" width="11px" height="13px" viewBox="0 0 127 140" version="1.1">
<defs>
<clipPath id="clip1">
  <rect x="0" y="0" width="127" height="140"/>
</clipPath>
<g id="surface5" clip-path="url(#clip1)">
<path style=" stroke:none;fill-rule:nonzero;fill:rgb(83.529412%,33.72549%,33.72549%);fill-opacity:1;" d="M 40.429688 71.175781 C 41.105469 64.273438 41.78125 58.050781 42.308594 51.75 C 42.757812 46.425781 43.359375 41.101562 43.511719 35.773438 C 43.660156 31.125 43.136719 26.398438 43.210938 21.75 C 43.285156 16.199219 43.359375 10.574219 43.886719 5.023438 C 44.335938 0.75 51.777344 -0.976562 55.535156 2.476562 C 57.488281 4.273438 58.539062 7.125 59.742188 9.675781 C 60.570312 11.476562 60.945312 13.425781 61.472656 15.300781 C 64.402344 26.25 67.257812 37.199219 70.261719 48.148438 C 71.015625 51 73.269531 53.699219 73.195312 56.398438 C 73.042969 61.199219 75.449219 65.101562 76.5 69.449219 C 77.027344 71.699219 78.003906 73.199219 80.859375 73.050781 C 86.195312 72.824219 91.605469 72.226562 96.789062 73.199219 C 104.003906 74.550781 110.46875 71.476562 117.304688 70.875 C 121.890625 70.5 125.570312 72.523438 126.023438 76.574219 C 126.550781 81.675781 126.097656 84.523438 120.085938 86.175781 C 109.867188 89.023438 99.945312 92.699219 89.953125 96.300781 C 85.894531 97.800781 86.121094 98.925781 87.621094 103.273438 C 91.304688 113.699219 97.316406 123.226562 99.195312 134.25 C 99.722656 137.476562 99.644531 140.398438 96.414062 141.824219 C 91.605469 143.925781 87.921875 142.800781 85.59375 139.800781 C 81.308594 134.398438 76.800781 129.148438 72.367188 123.898438 C 69.0625 120 65.605469 116.175781 61.621094 111.675781 C 54.332031 117.976562 47.042969 124.125 39.902344 130.351562 C 37.574219 132.375 35.320312 134.476562 32.988281 136.5 C 29.984375 139.125 26.375 139.050781 23.671875 136.425781 C 20.363281 133.199219 19.464844 128.550781 21.867188 125.699219 C 23.519531 123.75 25.398438 121.648438 27.578125 120.449219 C 31.636719 118.199219 31.261719 114 32.613281 110.625 C 33.742188 107.851562 34.265625 104.851562 34.867188 101.851562 C 35.695312 97.949219 36.445312 94.050781 37.046875 90.148438 C 37.125 89.398438 36.144531 88.050781 35.394531 87.824219 C 31.5625 86.625 27.503906 85.875 23.671875 84.75 C 17.660156 83.023438 11.046875 83.851562 5.5625 80.023438 C 1.726562 77.398438 0.75 74.175781 2.554688 69.824219 C 3.90625 66.523438 7.816406 64.648438 11.875 65.550781 C 19.6875 67.351562 27.503906 69.226562 35.394531 71.023438 C 36.597656 71.398438 38.101562 71.175781 40.429688 71.175781 Z M 54.859375 71.175781 C 56.511719 71.476562 58.015625 71.925781 59.59375 71.851562 C 60.269531 71.773438 61.621094 70.425781 61.472656 69.976562 C 60.570312 66.976562 59.367188 64.125 58.238281 61.199219 C 57.863281 61.351562 57.488281 61.425781 57.113281 61.574219 C 56.4375 64.726562 55.683594 67.875 54.859375 71.175781 Z M 58.316406 86.851562 C 59.894531 88.726562 61.019531 90.601562 62.671875 91.726562 C 63.425781 92.25 65.304688 91.5 66.507812 90.976562 C 67.105469 90.75 67.332031 89.699219 67.785156 89.023438 C 66.804688 88.425781 65.828125 87.601562 64.777344 87.375 C 62.671875 87 60.492188 87 58.316406 86.851562 Z M 58.316406 86.851562 "/>
</g>
</defs>
<g id="surface1">
<path style=" stroke:none;fill-rule:nonzero;fill:rgb(100%,100%,100%);fill-opacity:1;" d="M 0 144 C 0 96 0 48 0 0 C 42.308594 0 84.691406 0 127 0 C 127 48 127 96 127 144 C 84.691406 144 42.308594 144 0 144 Z M 40.429688 71.175781 C 38.101562 71.175781 36.597656 71.476562 35.246094 71.101562 C 27.429688 69.375 19.613281 67.425781 11.722656 65.625 C 7.664062 64.800781 3.757812 66.675781 2.40625 69.976562 C 0.601562 74.324219 1.578125 77.550781 5.410156 80.175781 C 10.894531 83.925781 17.507812 83.101562 23.519531 84.898438 C 27.429688 86.023438 31.410156 86.773438 35.246094 87.976562 C 35.996094 88.199219 37.046875 89.625 36.898438 90.300781 C 36.371094 94.199219 35.546875 98.101562 34.71875 102 C 34.117188 104.925781 33.589844 108 32.464844 110.773438 C 31.109375 114.148438 31.488281 118.351562 27.429688 120.601562 C 25.175781 121.800781 23.371094 123.898438 21.71875 125.851562 C 19.3125 128.699219 20.214844 133.351562 23.519531 136.574219 C 26.226562 139.199219 29.832031 139.273438 32.839844 136.648438 C 35.167969 134.625 37.421875 132.523438 39.753906 130.5 C 46.96875 124.273438 54.183594 118.125 61.472656 111.824219 C 65.453125 116.324219 68.910156 120.148438 72.21875 124.050781 C 76.726562 129.300781 81.234375 134.476562 85.441406 139.949219 C 87.773438 142.949219 91.453125 144 96.265625 141.976562 C 99.570312 140.550781 99.644531 137.625 99.046875 134.398438 C 97.089844 123.300781 91.078125 113.773438 87.472656 103.425781 C 85.96875 99.074219 85.742188 97.949219 89.800781 96.449219 C 99.796875 92.851562 109.714844 89.101562 119.9375 86.324219 C 125.949219 84.675781 126.398438 81.824219 125.871094 76.726562 C 125.421875 72.75 121.816406 70.648438 117.15625 71.023438 C 110.316406 71.625 103.929688 74.699219 96.640625 73.351562 C 91.53125 72.375 86.042969 72.976562 80.707031 73.199219 C 77.851562 73.273438 76.875 71.773438 76.351562 69.601562 C 75.296875 65.25 72.894531 61.351562 73.042969 56.550781 C 73.117188 53.851562 70.863281 51.148438 70.113281 48.300781 C 67.105469 37.351562 64.25 26.398438 61.320312 15.449219 C 60.792969 13.574219 60.417969 11.550781 59.59375 9.824219 C 58.390625 7.273438 57.335938 4.425781 55.382812 2.625 C 51.777344 -0.976562 44.335938 0.75 43.886719 4.949219 C 43.285156 10.5 43.285156 16.125 43.210938 21.675781 C 43.136719 26.324219 43.660156 31.050781 43.511719 35.699219 C 43.359375 41.023438 42.757812 46.351562 42.308594 51.675781 C 41.707031 57.976562 41.105469 64.273438 40.429688 71.175781 Z M 40.429688 71.175781 "/>
<use xlink:href="#surface5"/>
<path style=" stroke:none;fill-rule:nonzero;fill:rgb(100%,100%,100%);fill-opacity:1;" d="M 54.859375 71.175781 C 55.609375 67.875 56.359375 64.726562 57.113281 61.5 C 57.488281 61.351562 57.863281 61.273438 58.238281 61.125 C 59.367188 64.050781 60.570312 66.976562 61.472656 69.898438 C 61.621094 70.351562 60.269531 71.773438 59.59375 71.773438 C 58.089844 71.925781 56.511719 71.476562 54.859375 71.175781 Z M 54.859375 71.175781 "/>
<path style=" stroke:none;fill-rule:nonzero;fill:rgb(100%,100%,100%);fill-opacity:1;" d="M 58.316406 86.851562 C 60.492188 87 62.671875 87 64.777344 87.375 C 65.828125 87.601562 66.804688 88.425781 67.785156 89.023438 C 67.40625 89.699219 67.105469 90.675781 66.507812 90.976562 C 65.304688 91.5 63.425781 92.25 62.671875 91.726562 C 61.019531 90.601562 59.894531 88.726562 58.316406 86.851562 Z M 58.316406 86.851562 "/>
</g>
</svg>
