<svg xmlns="http://www.w3.org/2000/svg" xmlns:xlink="http://www.w3.org/1999/xlink" width="500" zoomAndPan="magnify" viewBox="0 0 375 374.999991" height="500" preserveAspectRatio="xMidYMid meet" version="1.0"><defs><clipPath id="6cf39b277b"><path d="M 5.546875 0 L 369.296875 0 L 369.296875 375 L 5.546875 375 Z M 5.546875 0 " clip-rule="nonzero"/></clipPath></defs><g clip-path="url(#6cf39b277b)"><path fill="#000000" d="M 153.945312 128.148438 C 154.128906 118.976562 154.535156 109.824219 155.300781 100.675781 C 156.570312 85.550781 159 70.585938 161.429688 55.617188 C 163.527344 42.699219 165.503906 29.765625 167.550781 16.839844 C 168.210938 12.671875 168.925781 8.515625 169.617188 4.351562 C 169.648438 4.171875 169.671875 3.988281 169.714844 3.808594 C 170.386719 0.722656 172.175781 0.0117188 174.722656 1.898438 C 182.269531 7.488281 190.363281 12.164062 198.78125 16.285156 C 211.113281 22.320312 223.953125 27.042969 237.152344 30.820312 C 249.460938 34.339844 261.957031 36.945312 274.625 38.75 C 281.339844 39.707031 288.085938 40.378906 294.863281 40.785156 C 300.480469 41.125 306.101562 41.417969 311.71875 41.347656 C 326.421875 41.15625 341.019531 39.933594 355.324219 36.257812 C 358.582031 35.417969 361.796875 34.429688 364.976562 33.335938 C 365.496094 33.15625 366.019531 32.960938 366.558594 32.875 C 367.710938 32.695312 368.613281 33.25 368.976562 34.359375 C 369.246094 35.175781 369.3125 36.019531 369.175781 36.890625 C 368.226562 42.996094 367.316406 49.101562 366.355469 55.203125 C 364.703125 65.714844 362.996094 76.21875 361.363281 86.730469 C 359.445312 99.058594 357.65625 111.402344 355.125 123.625 C 352.519531 136.214844 349.335938 148.648438 345.464844 160.910156 C 341.742188 172.71875 337.207031 184.199219 331.589844 195.230469 C 327.386719 203.484375 322.535156 211.34375 316.578125 218.453125 C 309.628906 226.746094 301.625 233.902344 292.792969 240.152344 C 284.804688 245.804688 276.101562 250.085938 267.148438 253.929688 C 262.203125 256.050781 257.355469 258.398438 252.375 260.425781 C 246.25 262.917969 239.933594 264.847656 233.382812 265.875 C 232.4375 266.023438 232.164062 266.457031 232.105469 267.300781 C 231.910156 270.042969 231.691406 272.785156 231.472656 275.527344 C 230.5 287.636719 227.75 299.324219 222.976562 310.496094 C 218.925781 319.984375 213.949219 328.953125 207.695312 337.179688 C 204.734375 341.078125 201.484375 344.738281 198.207031 348.367188 C 194.273438 352.722656 190.40625 357.136719 186.441406 361.464844 C 183.378906 364.8125 179.871094 367.679688 176.347656 370.515625 C 175.25 371.398438 174.101562 372.21875 173.054688 373.152344 C 171.472656 374.5625 169.648438 374.992188 167.605469 374.746094 C 163.539062 374.261719 159.507812 373.535156 155.464844 372.898438 C 148.792969 371.84375 142.402344 369.796875 136.023438 367.675781 C 129.988281 365.671875 123.875 363.910156 117.921875 361.660156 C 108.539062 358.117188 99.875 353.234375 91.664062 347.515625 C 86.4375 343.878906 81.515625 339.855469 76.988281 335.367188 C 70.273438 328.703125 64.550781 321.238281 59.4375 313.296875 C 54.46875 305.570312 50.027344 297.542969 46.105469 289.238281 C 41.398438 279.28125 37.242188 269.085938 33.523438 258.714844 C 28.480469 244.65625 24.445312 230.292969 20.636719 215.859375 C 16.925781 201.785156 13.050781 187.753906 9.253906 173.703125 C 8.230469 169.921875 7.222656 166.144531 6.214844 162.359375 C 6.042969 161.710938 5.859375 161.054688 5.789062 160.390625 C 5.554688 158.203125 6.96875 156.890625 9.136719 157.300781 C 12.441406 157.925781 15.730469 158.621094 19.066406 159.058594 C 23.671875 159.664062 28.289062 160.140625 32.925781 160.445312 C 38.183594 160.789062 43.4375 160.8125 48.691406 160.730469 C 57.5625 160.585938 66.382812 159.84375 75.183594 158.699219 C 87.269531 157.125 99.1875 154.753906 110.949219 151.574219 C 125.023438 147.773438 138.726562 142.933594 151.996094 136.859375 C 153.527344 136.160156 154.101562 135.296875 153.980469 133.652344 C 153.84375 131.828125 153.945312 129.984375 153.945312 128.148438 Z M 227.710938 258.332031 C 227.757812 253.820312 227.433594 248.148438 227.019531 242.472656 C 226.441406 234.601562 225.429688 226.78125 224.230469 218.988281 C 221.640625 202.164062 217.636719 185.648438 213.101562 169.25 C 209.476562 156.167969 205.929688 143.066406 202.40625 129.957031 C 201.011719 124.761719 199.785156 119.519531 198.460938 114.304688 C 198.078125 112.789062 197.953125 112.765625 196.730469 113.761719 C 194.367188 115.695312 192.050781 117.699219 189.632812 119.566406 C 178.394531 128.242188 166.109375 135.148438 153.234375 141.0625 C 137.117188 148.464844 120.367188 153.988281 103.132812 158.074219 C 92.839844 160.515625 82.433594 162.347656 71.910156 163.542969 C 60.902344 164.796875 49.871094 165.46875 38.800781 165.160156 C 34.40625 165.039062 30.015625 164.761719 25.636719 164.300781 C 21.074219 163.820312 16.542969 163.144531 12.027344 162.363281 C 10.605469 162.117188 10.449219 162.296875 10.839844 163.644531 C 11.695312 166.582031 12.652344 169.488281 13.453125 172.4375 C 17.996094 189.199219 22.542969 205.957031 27.015625 222.738281 C 31.558594 239.773438 36.953125 256.523438 43.664062 272.835938 C 48.34375 284.222656 53.613281 295.3125 59.960938 305.871094 C 67.441406 318.320312 76.132812 329.757812 87.53125 338.945312 C 96.101562 345.851562 105.382812 351.59375 115.484375 355.96875 C 123.976562 359.640625 132.925781 361.988281 141.6875 364.886719 C 142.144531 365.039062 142.640625 365.160156 143.121094 365.164062 C 144.304688 365.167969 145.414062 365.480469 146.515625 365.859375 C 150.457031 367.199219 154.460938 368.296875 158.5625 369.042969 C 161.390625 369.554688 164.210938 370.097656 167.042969 370.582031 C 168.320312 370.800781 169.601562 370.878906 170.683594 369.898438 C 173.125 367.675781 175.769531 365.699219 178.125 363.367188 C 183.125 358.417969 187.859375 353.222656 192.574219 348.007812 C 195.609375 344.65625 198.699219 341.351562 201.5625 337.84375 C 208.335938 329.550781 213.761719 320.433594 218.105469 310.660156 C 220.996094 304.160156 223.246094 297.445312 224.769531 290.492188 C 227 280.277344 227.738281 269.929688 227.710938 258.332031 Z M 364.796875 38.238281 C 363.191406 38.316406 361.917969 38.953125 360.597656 39.332031 C 347.542969 43.109375 334.167969 44.921875 320.640625 45.488281 C 310.808594 45.898438 300.964844 45.761719 291.136719 44.945312 C 281.6875 44.160156 272.300781 42.984375 262.96875 41.300781 C 244.191406 37.914062 225.933594 32.75 208.3125 25.402344 C 196.769531 20.589844 185.691406 14.898438 175.394531 7.757812 C 175.09375 7.550781 174.785156 7.347656 174.476562 7.148438 C 173.859375 6.757812 173.429688 6.90625 173.242188 7.617188 C 173.152344 7.96875 173.132812 8.339844 173.085938 8.703125 C 172.695312 11.671875 172.367188 14.652344 171.90625 17.613281 C 170.0625 29.453125 168.222656 41.292969 166.292969 53.125 C 163.539062 70.019531 160.699219 86.898438 159.445312 104.003906 C 158.773438 113.15625 158.332031 122.308594 158.394531 131.488281 C 158.394531 131.855469 158.398438 132.222656 158.429688 132.585938 C 158.480469 133.210938 158.792969 133.480469 159.414062 133.226562 C 159.808594 133.0625 160.195312 132.875 160.570312 132.671875 C 163.097656 131.304688 165.640625 129.964844 168.140625 128.546875 C 176.457031 123.835938 184.402344 118.578125 191.65625 112.328125 C 193.460938 110.769531 195.210938 109.148438 197.015625 107.589844 C 198.421875 106.378906 199.675781 106.578125 200.710938 108.09375 C 201.347656 109.023438 201.648438 110.085938 201.933594 111.144531 C 204.457031 120.472656 206.949219 129.808594 209.480469 139.132812 C 212.253906 149.347656 215.050781 159.546875 217.84375 169.753906 C 217.9375 170.105469 218.058594 170.457031 218.148438 170.808594 C 218.339844 171.546875 218.789062 171.617188 219.394531 171.3125 C 219.722656 171.144531 220.054688 170.988281 220.382812 170.824219 C 224.070312 168.984375 227.929688 167.625 231.957031 166.792969 C 244.058594 164.292969 255.175781 166.546875 265.113281 173.976562 C 271.953125 179.09375 276.625 185.894531 279.867188 193.726562 C 282.464844 200.003906 283.757812 206.585938 284.222656 213.339844 C 284.320312 214.738281 284.320312 216.15625 284.214844 217.554688 C 284.132812 218.675781 283.316406 219.421875 282.359375 219.53125 C 281.464844 219.636719 280.648438 219.164062 280.164062 218.207031 C 279.886719 217.660156 279.679688 217.082031 279.425781 216.527344 C 274.921875 206.601562 267.648438 199.347656 257.941406 194.550781 C 248.332031 189.796875 238.0625 188.34375 227.453125 188.832031 C 226.355469 188.882812 225.261719 189.042969 224.167969 189.128906 C 223.304688 189.195312 222.960938 189.617188 223.164062 190.464844 C 223.222656 190.703125 223.28125 190.941406 223.335938 191.179688 C 225.457031 200.421875 227.292969 209.71875 228.730469 219.09375 C 230.757812 232.28125 232.171875 245.523438 232.171875 258.886719 C 232.171875 259.378906 232.183594 259.867188 232.199219 260.355469 C 232.226562 261.253906 232.722656 261.703125 233.59375 261.699219 C 234.078125 261.699219 234.582031 261.65625 235.042969 261.523438 C 238.6875 260.484375 242.351562 259.53125 245.890625 258.132812 C 253.34375 255.1875 260.65625 251.921875 267.996094 248.71875 C 272.761719 246.640625 277.480469 244.46875 281.96875 241.824219 C 288.519531 237.96875 294.671875 233.558594 300.410156 228.570312 C 306.429688 223.339844 311.914062 217.613281 316.648438 211.1875 C 323.105469 202.425781 328.144531 192.863281 332.519531 182.929688 C 338.457031 169.457031 342.816406 155.453125 346.503906 141.226562 C 349.929688 128.011719 352.539062 114.632812 354.628906 101.144531 C 355.824219 93.410156 357.007812 85.675781 358.234375 77.945312 C 360.09375 66.230469 361.757812 54.480469 364.011719 42.832031 C 364.296875 41.351562 364.523438 39.859375 364.796875 38.238281 Z M 278.914062 206.539062 C 278.828125 205.871094 278.808594 205.632812 278.765625 205.40625 C 277.75 199.949219 275.929688 194.777344 273.210938 189.945312 C 269.921875 184.09375 265.546875 179.21875 259.835938 175.628906 C 254.269531 172.132812 248.21875 170.394531 241.617188 170.289062 C 234.335938 170.171875 227.597656 171.992188 221.1875 175.285156 C 219.640625 176.082031 219.597656 176.191406 220.015625 177.855469 C 220.476562 179.691406 220.957031 181.527344 221.460938 183.351562 C 221.871094 184.855469 221.941406 184.898438 223.488281 184.730469 C 230.832031 183.921875 238.132812 184.21875 245.363281 185.710938 C 256.789062 188.074219 266.800781 193.089844 274.800781 201.757812 C 276.121094 203.1875 277.339844 204.703125 278.914062 206.539062 Z M 278.914062 206.539062 " fill-opacity="1" fill-rule="nonzero"/></g><path fill="#000000" d="M 190.121094 278.492188 C 189.507812 290.585938 186.476562 301.386719 179.410156 310.8125 C 173.765625 318.34375 166.476562 323.546875 157.347656 326.050781 C 150.976562 327.796875 144.5625 327.882812 138.109375 326.523438 C 128.601562 324.519531 120.421875 319.976562 113.125 313.65625 C 109.125 310.1875 105.691406 306.234375 102.574219 301.984375 C 101.417969 300.40625 101.292969 299.496094 102.054688 298.511719 C 102.785156 297.566406 103.792969 297.410156 105.570312 298.140625 C 111.875 300.730469 118.371094 302.625 125.105469 303.667969 C 135.386719 305.257812 145.59375 305.042969 155.578125 301.914062 C 168.667969 297.820312 178.710938 289.984375 184.785156 277.460938 C 185.210938 276.582031 185.535156 275.652344 185.953125 274.769531 C 186.496094 273.625 187.273438 273.144531 188.222656 273.289062 C 189.222656 273.441406 190.011719 274.277344 190.101562 275.480469 C 190.1875 276.636719 190.121094 277.804688 190.121094 278.492188 Z M 184.378906 286.894531 C 184.039062 287.320312 183.691406 287.738281 183.359375 288.167969 C 178.828125 294.011719 173.253906 298.589844 166.726562 302.039062 C 157.714844 306.800781 148.027344 308.867188 137.941406 309.035156 C 129.207031 309.179688 120.652344 307.730469 112.289062 305.1875 C 111.828125 305.046875 111.34375 304.671875 110.78125 304.984375 C 110.988281 305.640625 111.464844 305.957031 111.832031 306.347656 C 114.554688 309.257812 117.535156 311.886719 120.804688 314.167969 C 130.324219 320.808594 140.714844 324.300781 152.433594 322.59375 C 160.59375 321.40625 167.472656 317.613281 173.085938 311.609375 C 178.824219 305.476562 182.324219 298.140625 184.207031 290 C 184.433594 289.007812 184.765625 288.011719 184.378906 286.894531 Z M 184.378906 286.894531 " fill-opacity="1" fill-rule="nonzero"/><path fill="#000000" d="M 76.332031 222.863281 C 69.3125 222.894531 63.105469 223.683594 57.164062 226.042969 C 56.429688 226.332031 55.648438 226.511719 54.878906 226.707031 C 53.882812 226.957031 53.058594 226.683594 52.511719 225.78125 C 51.960938 224.878906 51.8125 223.957031 52.480469 223.039062 C 52.660156 222.792969 52.863281 222.5625 53.070312 222.335938 C 60.710938 214.105469 70.042969 209.390625 81.292969 208.394531 C 87.191406 207.871094 92.878906 208.414062 98.386719 210.558594 C 104.734375 213.035156 109.4375 217.417969 112.765625 223.3125 C 113.453125 224.535156 114.050781 225.808594 114.644531 227.085938 C 114.949219 227.75 115.207031 228.445312 115.386719 229.148438 C 115.757812 230.589844 115.484375 231.644531 114.636719 232.121094 C 113.582031 232.71875 112.621094 232.339844 111.738281 231.699219 C 110.40625 230.726562 109.046875 229.796875 107.597656 229 C 104.242188 227.160156 100.644531 225.984375 96.925781 225.21875 C 89.910156 223.769531 82.808594 223.042969 76.332031 222.863281 Z M 61.15625 220.0625 C 77.632812 217.554688 93.472656 219.09375 108.925781 224.871094 C 108.90625 224.71875 108.921875 224.585938 108.871094 224.484375 C 108.734375 224.214844 108.578125 223.949219 108.414062 223.695312 C 105.054688 218.492188 100.414062 214.917969 94.433594 213.402344 C 84.003906 210.765625 74.082031 212.339844 64.757812 217.664062 C 63.507812 218.378906 62.351562 219.257812 61.15625 220.0625 Z M 61.15625 220.0625 " fill-opacity="1" fill-rule="nonzero"/><path fill="#000000" d="M 147.773438 218.0625 C 147.898438 206.679688 152.738281 197.921875 162.460938 191.996094 C 168.507812 188.308594 175.125 186.320312 182.1875 185.644531 C 189.023438 184.988281 195.40625 186.640625 201.683594 189.042969 C 202.371094 189.308594 203.019531 189.648438 203.347656 190.386719 C 203.953125 191.757812 203.367188 193.191406 201.882812 193.570312 C 200.648438 193.886719 199.359375 194.054688 198.085938 194.160156 C 192.648438 194.59375 187.511719 196.152344 182.617188 198.460938 C 174.625 202.234375 167.117188 206.800781 160.320312 212.496094 C 157.476562 214.878906 155.203125 217.730469 153.308594 220.902344 C 152.929688 221.53125 152.582031 222.179688 152.195312 222.800781 C 151.667969 223.640625 150.929688 224.164062 149.898438 223.957031 C 148.796875 223.738281 148.246094 222.941406 148.109375 221.886719 C 147.945312 220.617188 147.703125 219.347656 147.773438 218.0625 Z M 151.964844 215.148438 C 163.703125 203.144531 177.390625 194.992188 193.546875 190.519531 C 191.261719 189.851562 189.152344 189.605469 187.035156 189.496094 C 182.089844 189.234375 177.292969 190.0625 172.617188 191.636719 C 167.285156 193.4375 162.386719 195.988281 158.488281 200.171875 C 154.613281 204.335938 152.355469 209.210938 151.964844 215.148438 Z M 151.964844 215.148438 " fill-opacity="1" fill-rule="nonzero"/><path fill="#000000" d="M 222.214844 279.601562 C 222.164062 279.871094 222.101562 280.230469 222.035156 280.59375 C 219.804688 292.875 216.027344 304.648438 210.476562 315.84375 C 207.265625 322.324219 202.371094 327.257812 196.558594 331.382812 C 196.09375 331.710938 195.488281 332.410156 194.988281 331.894531 C 194.464844 331.359375 195.242188 330.832031 195.566406 330.371094 C 196.734375 328.71875 198.082031 327.195312 199.53125 325.808594 C 204.507812 321.066406 207.765625 315.265625 210.429688 309.015625 C 213.820312 301.070312 216.515625 292.898438 218.851562 284.59375 C 219.246094 283.179688 219.71875 281.792969 220.1875 280.402344 C 220.339844 279.941406 220.5625 279.496094 220.792969 279.070312 C 220.96875 278.742188 221.234375 278.421875 221.648438 278.496094 C 222.183594 278.597656 222.195312 279.070312 222.214844 279.601562 Z M 222.214844 279.601562 " fill-opacity="1" fill-rule="nonzero"/><path fill="#000000" d="M 35.183594 222.332031 C 35.183594 222.726562 35.199219 222.972656 35.179688 223.214844 C 35.15625 223.507812 35.183594 223.855469 34.824219 223.980469 C 34.453125 224.113281 34.257812 223.824219 34.097656 223.578125 C 33.351562 222.453125 32.804688 221.230469 32.332031 219.964844 C 30.773438 215.777344 29.65625 211.460938 28.609375 207.128906 C 26.210938 197.15625 24.023438 187.132812 21.972656 177.082031 C 21.789062 176.183594 21.636719 175.277344 21.535156 174.371094 C 21.480469 173.871094 21.609375 173.359375 22.195312 173.214844 C 22.785156 173.066406 23.132812 173.472656 23.324219 173.933594 C 23.648438 174.722656 23.933594 175.53125 24.164062 176.351562 C 26.386719 184.230469 28.050781 192.246094 30.007812 200.191406 C 31.4375 206 32.882812 211.808594 34.3125 217.617188 C 34.707031 219.222656 35.097656 220.824219 35.183594 222.332031 Z M 35.183594 222.332031 " fill-opacity="1" fill-rule="nonzero"/><path fill="#000000" d="M 319.582031 114.589844 C 310.363281 114.234375 301.679688 112.128906 294.1875 106.4375 C 287.667969 101.484375 284.042969 94.832031 283.097656 86.714844 C 282.929688 85.257812 282.652344 83.804688 282.765625 82.332031 C 282.8125 81.726562 282.847656 81.101562 283.027344 80.527344 C 283.578125 78.765625 285.285156 78.371094 286.597656 79.675781 C 286.855469 79.933594 287.078125 80.234375 287.269531 80.542969 C 290.324219 85.507812 294.632812 89.167969 299.542969 92.144531 C 306.5625 96.402344 313.867188 100.082031 321.710938 102.59375 C 325.800781 103.90625 329.992188 104.6875 334.316406 104.679688 C 335.59375 104.675781 336.875 104.820312 338.152344 104.9375 C 339.6875 105.070312 340.433594 105.675781 340.644531 106.890625 C 340.835938 108.019531 340.414062 108.839844 339.089844 109.496094 C 334.582031 111.734375 329.914062 113.523438 324.886719 114.207031 C 323.132812 114.445312 321.375 114.683594 319.582031 114.589844 Z M 287.484375 87.878906 C 287.449219 87.921875 287.378906 87.96875 287.378906 88.011719 C 287.386719 88.253906 287.386719 88.496094 287.429688 88.730469 C 288.539062 94.652344 291.625 99.375 296.28125 103.089844 C 300.375 106.355469 305.113281 108.261719 310.175781 109.449219 C 316.351562 110.898438 322.527344 110.988281 328.699219 109.4375 C 329.289062 109.289062 329.992188 109.289062 330.371094 108.6875 C 314.136719 105.574219 299.929688 98.546875 287.484375 87.878906 Z M 287.484375 87.878906 " fill-opacity="1" fill-rule="nonzero"/><path fill="#000000" d="M 217.578125 100.273438 C 209.789062 100.070312 202.269531 98.539062 195.5 94.234375 C 192.808594 92.523438 190.320312 90.550781 187.9375 88.449219 C 186.882812 87.515625 186.664062 86.433594 187.21875 85.328125 C 187.726562 84.316406 188.625 83.929688 190.03125 84.210938 C 192.664062 84.734375 195.226562 85.566406 197.898438 85.96875 C 202.585938 86.675781 207.273438 86.671875 211.960938 86.121094 C 218.523438 85.347656 225 84.105469 231.347656 82.238281 C 236.566406 80.703125 241.378906 78.394531 245.519531 74.796875 C 245.886719 74.480469 246.253906 74.136719 246.671875 73.902344 C 248.085938 73.105469 249.578125 73.898438 249.757812 75.519531 C 249.828125 76.136719 249.695312 76.738281 249.53125 77.328125 C 246.402344 88.269531 239.625 95.660156 228.550781 98.851562 C 225 99.871094 221.351562 100.191406 217.578125 100.273438 Z M 243.765625 81.433594 C 228.519531 88.566406 212.824219 91.460938 196.019531 89.9375 C 198.296875 91.511719 200.488281 92.582031 202.734375 93.515625 C 208.976562 96.113281 215.523438 96.605469 222.164062 96.027344 C 226.460938 95.652344 230.542969 94.433594 234.277344 92.160156 C 238.464844 89.609375 241.570312 86.132812 243.765625 81.433594 Z M 243.765625 81.433594 " fill-opacity="1" fill-rule="nonzero"/><path fill="#000000" d="M 171.925781 71.195312 C 172.132812 65.453125 172.535156 59.726562 173.179688 54.011719 C 173.789062 48.601562 174.410156 43.191406 175.515625 37.863281 C 176.542969 32.898438 177.421875 27.894531 178.8125 23.007812 C 179.015625 22.300781 179.207031 21.589844 179.664062 20.992188 C 179.859375 20.734375 180.117188 20.5625 180.449219 20.652344 C 180.785156 20.742188 180.976562 21.035156 180.957031 21.335938 C 180.894531 22.3125 180.839844 23.292969 180.675781 24.253906 C 179.488281 31.058594 178.238281 37.851562 177.078125 44.660156 C 176.089844 50.449219 175.628906 56.304688 174.953125 62.132812 C 174.484375 66.199219 174.25 70.296875 173.253906 74.289062 C 173.125 74.796875 173.175781 75.652344 172.546875 75.617188 C 171.75 75.574219 171.972656 74.6875 171.941406 74.128906 C 171.886719 73.15625 171.925781 72.175781 171.925781 71.195312 Z M 171.925781 71.195312 " fill-opacity="1" fill-rule="nonzero"/><path fill="#000000" d="M 325.789062 182.050781 C 325.671875 182.53125 325.527344 183.1875 325.34375 183.832031 C 322.523438 193.695312 317.632812 202.433594 311 210.21875 C 307.707031 214.089844 304.203125 217.753906 300.304688 221.023438 C 300.164062 221.144531 300.027344 221.269531 299.875 221.367188 C 299.445312 221.648438 298.980469 222.335938 298.5 221.851562 C 298.035156 221.386719 298.675781 220.863281 298.960938 220.4375 C 300.996094 217.367188 303.535156 214.703125 305.953125 211.949219 C 312.496094 204.496094 317.984375 196.382812 321.859375 187.222656 C 322.550781 185.589844 323.320312 183.988281 324.0625 182.378906 C 324.214844 182.046875 324.398438 181.726562 324.59375 181.417969 C 324.761719 181.15625 324.992188 180.917969 325.332031 180.984375 C 325.824219 181.082031 325.753906 181.507812 325.789062 182.050781 Z M 325.789062 182.050781 " fill-opacity="1" fill-rule="nonzero"/></svg>